<svg xmlns="http://www.w3.org/2000/svg" width="55" height="53" fill="none"><g fill="#FF7500" filter="url(#a)"><path d="M18.68 2.352a2.8 2.8 0 1 0-5.408 1.45l.724 2.704a2.8 2.8 0 0 0 5.41-1.45l-.725-2.704ZM6.802 10.272a2.8 2.8 0 0 0-1.45 5.409l2.705.725a2.8 2.8 0 1 0 1.45-5.41l-2.705-.724ZM31.48 8.68a2.8 2.8 0 0 0-3.96-3.96L25.54 6.7a2.8 2.8 0 1 0 3.96 3.96l1.98-1.98ZM11.68 28.48l1.98-1.98a2.8 2.8 0 1 0-3.96-3.96l-1.98 1.98a2.8 2.8 0 1 0 3.96 3.96ZM20.64 14A2.8 2.8 0 0 0 17 17.64l11.2 28a2.8 2.8 0 0 0 5.104.212l3.863-7.725 8.453 8.453a2.8 2.8 0 1 0 3.96-3.96l-8.453-8.453 7.725-3.863a2.8 2.8 0 0 0-.212-5.104l-28-11.2Z"/></g><defs><filter id="a" width="55.124" height="55.124" x="-.724" y=".276" color-interpolation-filters="sRGB" filterUnits="userSpaceOnUse"><feFlood flood-opacity="0" result="BackgroundImageFix"/><feColorMatrix in="SourceAlpha" result="hardAlpha" values="0 0 0 0 0 0 0 0 0 0 0 0 0 0 0 0 0 0 127 0"/><feOffset dy="4"/><feGaussianBlur stdDeviation="2"/><feComposite in2="hardAlpha" operator="out"/><feColorMatrix values="0 0 0 0 0 0 0 0 0 0 0 0 0 0 0 0 0 0 0.25 0"/><feBlend in2="BackgroundImageFix" result="effect1_dropShadow_3_70"/><feBlend in="SourceGraphic" in2="effect1_dropShadow_3_70" result="shape"/></filter></defs></svg>