<svg xmlns="http://www.w3.org/2000/svg" width="54" height="51" fill="none"><g fill="#FF7500" fill-rule="evenodd" clip-rule="evenodd" filter="url(#a)"><path d="M13 .6a2.8 2.8 0 0 1 2.8 2.8v2.8h2.8a2.8 2.8 0 1 1 0 5.6h-2.8v2.8a2.8 2.8 0 1 1-5.6 0v-2.8H7.4a2.8 2.8 0 0 1 0-5.6h2.8V3.4A2.8 2.8 0 0 1 13 .6Zm0 28a2.8 2.8 0 0 1 2.8 2.8v2.8h2.8a2.8 2.8 0 1 1 0 5.6h-2.8v2.8a2.8 2.8 0 1 1-5.6 0v-2.8H7.4a2.8 2.8 0 1 1 0-5.6h2.8v-2.8a2.8 2.8 0 0 1 2.8-2.8ZM32.6.6a2.8 2.8 0 0 1 2.707 2.083l3.301 12.474L48 20.575a2.8 2.8 0 0 1 0 4.85l-9.39 5.418-3.302 12.473a2.8 2.8 0 0 1-5.414 0l-3.302-12.473-9.39-5.418a2.8 2.8 0 0 1 0-4.85l9.39-5.418 3.302-12.474A2.8 2.8 0 0 1 32.6.6Z"/></g><defs><filter id="a" width="52.8" height="52.8" x=".6" y=".6" color-interpolation-filters="sRGB" filterUnits="userSpaceOnUse"><feFlood flood-opacity="0" result="BackgroundImageFix"/><feColorMatrix in="SourceAlpha" result="hardAlpha" values="0 0 0 0 0 0 0 0 0 0 0 0 0 0 0 0 0 0 127 0"/><feOffset dy="4"/><feGaussianBlur stdDeviation="2"/><feComposite in2="hardAlpha" operator="out"/><feColorMatrix values="0 0 0 0 0 0 0 0 0 0 0 0 0 0 0 0 0 0 0.25 0"/><feBlend in2="BackgroundImageFix" result="effect1_dropShadow_3_105"/><feBlend in="SourceGraphic" in2="effect1_dropShadow_3_105" result="shape"/></filter></defs></svg>